<svg width="87" height="85" viewBox="0 0 87 85" fill="none" xmlns="http://www.w3.org/2000/svg">
<path d="M15.4063 0H71.5938C80.1125 0 87 6.90171 87 15.438V69.562C87 78.0983 80.1125 85 71.5938 85H15.4063C6.8875 85 0 78.0983 0 69.562V15.438C0 6.90171 6.8875 0 15.4063 0Z" fill="#470137"/>
<path d="M45.7475 22.3397L34.8725 40.3205L46.4725 59.391C46.545 59.5363 46.5812 59.6816 46.545 59.8269C46.5087 59.9722 46.3638 59.8632 46.1463 59.8996H37.845C37.265 59.8996 36.8663 59.8632 36.6125 59.5C35.8513 57.9744 35.0537 56.485 34.2925 54.9594C33.5312 53.4701 32.6975 51.9444 31.8275 50.3825C30.9575 48.8205 30.0875 47.2585 29.2175 45.6602H29.145C28.3838 47.2222 27.55 48.7842 26.7162 50.3462C25.8825 51.9081 25.0488 53.4701 24.2513 54.9957C23.4175 56.5214 22.5838 58.0833 21.75 59.5726C21.605 59.9359 21.315 59.9722 20.9163 59.9722H12.9413C12.7963 59.9722 12.6875 60.0449 12.6875 59.8632C12.6512 59.7179 12.6875 59.5726 12.76 59.4637L24.0338 40.938L13.05 22.3034C12.9412 22.1581 12.905 22.0128 12.9775 21.9402C13.05 21.8312 13.195 21.7949 13.34 21.7949H21.5688C21.75 21.7949 21.9313 21.8312 22.0763 21.8675C22.2213 21.9402 22.33 22.0491 22.4388 22.1944C23.1275 23.7564 23.925 25.3184 24.7588 26.8803C25.6288 28.4423 26.4625 29.9679 27.3688 31.4936C28.2388 33.0192 29.0362 34.5449 29.7975 36.1068H29.87C30.6313 34.5085 31.4288 32.9466 32.2263 31.4209C33.0238 29.8953 33.8575 28.3696 34.6912 26.844C35.525 25.3184 36.3225 23.7564 37.12 22.2671C37.1563 22.1218 37.2288 21.9765 37.3375 21.9038C37.4825 21.8312 37.6275 21.7949 37.8088 21.8312H45.4575C45.6388 21.7949 45.82 21.9038 45.8563 22.0855C45.8925 22.1218 45.82 22.2671 45.7475 22.3397Z" fill="#FF61F6"/>
<path d="M62.495 60.6624C59.8125 60.6987 57.13 60.1538 54.7013 59.0278C52.4175 57.9744 50.5325 56.2308 49.2275 54.0876C47.8863 51.8718 47.2338 49.1111 47.2338 45.8056C47.1975 43.1175 47.8863 40.4658 49.2275 38.141C50.605 35.7799 52.5988 33.8184 54.9913 32.5107C57.5288 31.094 60.5738 30.4038 64.1625 30.4038C64.3438 30.4038 64.5975 30.4038 64.9238 30.4402C65.25 30.4765 65.6125 30.4765 66.0475 30.5128V19.0342C66.0475 18.7799 66.1563 18.6346 66.41 18.6346H73.7688C73.95 18.5983 74.095 18.7436 74.1313 18.8889C74.1313 18.9252 74.1313 18.9615 74.1313 18.9615V53.5427C74.1313 54.1966 74.1675 54.9231 74.2038 55.7222C74.2763 56.485 74.3125 57.2115 74.3488 57.8291C74.3488 58.0833 74.24 58.3013 73.9863 58.4103C72.1013 59.2094 70.1075 59.7906 68.0775 60.1538C66.2288 60.4808 64.38 60.6624 62.495 60.6624ZM66.0475 53.3974V37.4145C65.7213 37.3419 65.395 37.2692 65.0688 37.2329C64.67 37.1966 64.2713 37.1603 63.8725 37.1603C62.4588 37.1603 61.045 37.4509 59.7763 38.1047C58.5438 38.7222 57.4925 39.6303 56.695 40.7927C55.8975 41.9551 55.4988 43.5171 55.4988 45.406C55.4625 46.6773 55.68 47.9487 56.115 49.1474C56.4775 50.1282 57.0213 51 57.7463 51.7265C58.435 52.3803 59.2688 52.8889 60.2113 53.1795C61.19 53.5064 62.205 53.6517 63.22 53.6517C63.7638 53.6517 64.2713 53.6154 64.7425 53.5791C65.2138 53.6154 65.6125 53.5427 66.0475 53.3974Z" fill="#FF61F6"/>
</svg>
