<svg width="85" height="83" viewBox="0 0 85 83" fill="none" xmlns="http://www.w3.org/2000/svg">
<path fill-rule="evenodd" clip-rule="evenodd" d="M83.0654 4.02601C83.0654 2.7172 81.9823 1.65024 80.6537 1.65024H5.01106C3.68248 1.65024 2.5994 2.7172 2.5994 4.02601V78.5426C2.5994 79.8514 3.68248 80.9184 5.01106 80.9184H80.6537C81.9823 80.9184 83.0654 79.8514 83.0654 78.5426V4.02601Z" fill="#144E8C"/>
<path fill-rule="evenodd" clip-rule="evenodd" d="M83.0654 4.02601C83.0654 2.7172 81.9823 1.65024 80.6537 1.65024H5.01106C3.68248 1.65024 2.5994 2.7172 2.5994 4.02601V78.5426C2.5994 79.8514 3.68248 80.9184 5.01106 80.9184H80.6537C81.9823 80.9184 83.0654 79.8514 83.0654 78.5426V4.02601Z" fill="#1B72BE"/>
<path fill-rule="evenodd" clip-rule="evenodd" d="M83.0654 4.02601C83.0654 2.7172 81.9823 1.65024 80.6537 1.65024H35.5974L2.5994 57.9431V78.5426C2.5994 79.8514 3.68248 80.9184 5.01106 80.9184H80.6537C81.9823 80.9184 83.0654 79.8514 83.0654 78.5426V4.02601Z" fill="#0568AA"/>
<path fill-rule="evenodd" clip-rule="evenodd" d="M39.7998 80.9326H34.1822L19.6833 52.2242L47.9301 1.66446H52.4791L22.9181 52.1104L39.7998 80.9326ZM55.0063 80.9326H41.0128L24.521 52.7933H83.0798V58.0427L55.0063 80.9326ZM41.085 1.65024H36.3916L2.5994 59.3231V67.3466L41.085 1.65024ZM49.2587 51.7548H33.3446C31.4817 51.7548 29.7632 50.8016 28.8245 49.2083C27.9003 47.6292 27.9003 45.666 28.8245 44.0869L36.796 30.4867L49.2587 51.7548ZM83.0654 51.7548H50.4573L37.3881 29.4624L53.6777 1.66446H59.5841L51.0061 30.4013L54.9918 38.4533L83.0509 49.3221V51.7548H83.0654Z" fill="#074F7F"/>
<path fill-rule="evenodd" clip-rule="evenodd" d="M83.0654 80.9326H42.2114L26.3262 53.8176H83.0654V80.9326V80.9326ZM38.5867 80.9326H2.5994V61.3859L37.6047 1.66446H51.2805L21.705 52.1104L38.5867 80.9326ZM47.4536 50.7305H33.619C32.0737 50.7305 30.6441 49.9338 29.8787 48.6108C29.1133 47.302 29.1133 45.666 29.8787 44.3572C32.9547 39.1077 36.796 32.5494 36.796 32.5494L47.4536 50.7305ZM83.0654 50.7305H51.0638L38.6011 29.4624L54.8907 1.66446H83.0509V50.7305H83.0654Z" fill="url(#paint0_radial_102_43)"/>
<path fill-rule="evenodd" clip-rule="evenodd" d="M84.9283 82.3837H43.0635L26.3262 53.8175H84.8994L84.9283 82.3837ZM21.705 52.1104L39.4532 82.3837H0.12997L0 65.8244L38.5723 0H52.248L21.705 52.1104ZM28.0014 54.7707L43.6267 81.4305H83.9607L83.9319 54.7707H28.0014ZM39.121 0.953152L0.953115 66.0663L1.06864 81.4305H37.778L20.5931 52.1104L50.5729 0.953152H39.121ZM47.4536 50.7305H33.5901H33.5756H33.5468H33.5323H33.5179H33.5034H33.489H33.4746H33.4601H33.4457H33.4312H33.4168H33.4023H33.3879H33.3735H33.359H33.3446H33.3301H33.3157H33.3013H33.2868H33.2724H33.2579H33.2435H33.2291H33.2146H33.2002H33.1857H33.1713H33.1568H33.1424H33.128H33.1135H33.0991H33.0846H33.0702H33.0558H33.0413H33.0269H33.0124H32.998H32.9835H32.9691H32.9547H32.9402H32.9258H32.9113H32.8969H32.8825H32.868H32.8536H32.8391H32.8247H32.8103H32.7958H32.7814H32.7669H32.7525H32.7381H32.7236H32.7092H32.6947H32.6803H32.6658H32.6514H32.637H32.6225H32.6081H32.5936H32.5792H32.5648H32.5503H32.5359H32.5214H32.507H32.4926H32.4781H32.4637H32.4492H32.4348H32.4203H32.4059H32.3915H32.377H32.3626H32.3481H32.3337H32.3193H32.3048H32.2904H32.2759H32.2615H32.2471H32.2326H32.2182H32.2037H32.1893H32.1748H32.1604H32.146L32.1315 50.7162H32.1171H32.1026H32.0882H32.0738L32.0593 50.702H32.0449L32.0304 50.6878H32.016L32.0016 50.6736L31.9871 50.6593L31.9727 50.6451L31.9582 50.6309L31.9438 50.6167L31.9293 50.6024L31.9149 50.5882L31.9005 50.574L31.886 50.5598L31.5683 50.2183L31.5539 50.2041L31.5394 50.1899L31.525 50.1757L31.5106 50.1614L31.4961 50.1472L31.4817 50.133L31.4672 50.1187L31.4528 50.1045L31.4384 50.0903L31.4239 50.0761L31.4095 50.0618L31.395 50.0476L31.3806 50.0334L31.3661 50.0192L31.3517 50.0049L31.3373 49.9907L31.3228 49.9765L31.3084 49.9623L31.2939 49.948L31.2795 49.9338L31.2651 49.9196L31.2506 49.9054L31.2362 49.8911L31.2217 49.8769L31.2073 49.8627L31.1928 49.8485L31.1784 49.8342L31.164 49.82L31.1495 49.8058L31.1351 49.7915L31.1206 49.7773L31.1062 49.7631L31.0918 49.7489L31.0773 49.7346L31.0629 49.7204L31.0484 49.7062L31.034 49.692L31.0196 49.6777L31.0051 49.6635L30.9907 49.6493L30.9762 49.6351L30.9618 49.6208L30.9474 49.6066L30.9329 49.5924L30.9185 49.5782L30.904 49.5639L30.8896 49.5497L30.8751 49.5355L30.8607 49.5213L30.8463 49.507L30.8318 49.4928L30.8174 49.4786L30.8029 49.4643L30.7885 49.4501L30.7741 49.4359L30.7596 49.4217L30.7452 49.4074L30.7307 49.3932L30.7163 49.379L30.7019 49.3648L30.6874 49.3505L30.673 49.3363L30.6585 49.3221L30.6441 49.3079L30.6296 49.2936L30.6152 49.2794L30.6008 49.2652L30.5863 49.251L30.5719 49.2367L30.5574 49.2225L30.543 49.2083L30.5286 49.194L30.5141 49.1798L30.4997 49.1656L30.4852 49.1514L30.4708 49.1371L30.4564 49.1229L30.4419 49.1087L30.4275 49.0945L30.413 49.0802L30.3986 49.066L30.3841 49.0518L30.3697 49.0376L30.3553 49.0233L30.3408 49.0091L30.3264 48.9949L30.3119 48.9807L30.2975 48.9664L30.2831 48.9522L30.2686 48.938L30.2542 48.9238L30.2397 48.9095L30.2253 48.8953L30.2109 48.8811L30.1964 48.8668L30.182 48.8526L30.1675 48.8384L30.1531 48.8242L30.1386 48.8099L30.1242 48.7957L30.1098 48.7815L30.0953 48.7673L30.0809 48.753L30.0664 48.7388L30.052 48.7246L30.0376 48.7104L30.0231 48.6961L30.0087 48.6819L29.9942 48.6677L29.9798 48.6535L29.9654 48.6392L29.9509 48.625L29.9365 48.6108L29.922 48.5966L29.9076 48.5823L29.8931 48.5681L29.8787 48.5539L29.8643 48.5396L29.8498 48.5254L29.8354 48.5112L29.8209 48.497L29.8065 48.4827L29.9798 48.7957L29.9654 48.7815L29.9509 48.7673L29.9365 48.753L29.922 48.7388L29.9076 48.7246L29.8931 48.7104L29.8787 48.6961L29.8643 48.6819L29.8498 48.6677L29.8354 48.6535L29.8209 48.6392L29.8065 48.625L29.7921 48.6108L29.7776 48.5966L29.7632 48.5823L29.7487 48.5681L29.7343 48.5539L29.7199 48.5396L29.7054 48.5254L29.691 48.5112L29.6765 48.497L29.6621 48.4827L29.6476 48.4685L29.6332 48.4543L29.6188 48.4401L29.6043 48.4258L29.5899 48.4116L29.5754 48.3974L29.561 48.3832L29.5466 48.3689L29.5321 48.3547L29.5177 48.3405L29.5032 48.3263L29.4888 48.312L29.4744 48.2978L29.4599 48.2836L29.4455 48.2693L29.431 48.2551V48.2409V48.2267V48.2124V48.1982V48.184V48.1698V48.1555V48.1413V48.1271V48.1129V48.0986V48.0844V48.0702V48.056V48.0417V48.0275V48.0133V47.9991V47.9848V47.9706V47.9564V47.9421V47.9279V47.9137V47.8995V47.8852V47.871V47.8568V47.8426V47.8283V47.8141V47.7999V47.7857V47.7714V47.7572V47.743V47.7288V47.7145V47.7003V47.6861V47.6719V47.6576V47.6434V47.6292V47.6149V47.6007V47.5865V47.5723V47.558V47.5438V47.5296V47.5154V47.5011V47.4869V47.4727V47.4585V47.4442V47.43V47.4158V47.4016V47.3873V47.3731V47.3589V47.3446V47.3304V47.3162V47.302V47.2877V47.2735V47.2593V47.2451V47.2308V47.2166V47.2024V47.1882V47.1739V47.1597V47.1455V47.1313V47.117V47.1028V47.0886V47.0744V47.0601V47.0459V47.0317V47.0174V47.0032V46.989V46.9748V46.9605V46.9463V46.9321V46.9179V46.9036V46.8894V46.8752V46.861V46.8467V46.8325V46.8183V46.7898V46.7756V46.7614V46.7472V46.7329V46.7187V46.7045V46.6902V46.676V46.6618V46.6476V46.6333V46.6191V46.6049V46.5907V46.5764V46.5622V46.548V46.5338V46.5195V46.5053V46.4911V46.4769V46.4626V46.4484V46.4342V46.4199V46.4057V46.3915V46.3773V46.363V46.3488V46.3346V46.3204V46.3061V46.2919V46.2777V46.2635V46.2492V46.235V46.2208V46.2066V46.1923V46.1781V46.1639V46.1497V46.1354V46.1212V46.107V46.0927V46.0785V46.0643V46.0501V46.0358V46.0216V46.0074V45.9932V45.9789V45.9647V45.9505V45.9363V45.922V45.9078V45.8936V45.8794V45.8651V45.8509V45.8367V45.8225V45.8082V45.794V45.7798V45.7655V45.7513V45.7371V45.7229V45.7086V45.6944V45.6802V45.666V45.6517V45.6375V45.6233V45.6091V45.5948V45.5806V45.5664V45.5522V45.5379V45.5237V45.5095V45.4952V45.481V45.4668V45.4526V45.4383V45.4241V45.4099V45.3957V45.3814V45.3672V45.353L29.4455 45.3388L29.4599 45.3245L29.4744 45.3103L29.4888 45.2961L29.5032 45.2819L29.5177 45.2676L29.5321 45.2534L29.5466 45.2392L29.561 45.225L29.5754 45.2107L29.5899 45.1965L29.6043 45.1823L29.6188 45.168L29.6332 45.1538L29.6476 45.1396L29.6621 45.1254L29.6765 45.1111L29.691 45.0969L29.7054 45.0827L29.7199 45.0685L29.7343 45.0542L29.7487 45.04L29.7632 45.0258L29.7776 45.0116L29.7921 44.9973L29.8065 44.9831L36.7238 33.1754L47.4536 50.7305ZM84.885 50.7305H51.0639L38.6012 29.4624L55.8727 0H84.5384L84.885 50.7305ZM30.7163 44.8266L30.7019 44.8551V44.8693V44.8835V44.8978V44.912V44.9262V44.9404V44.9547V44.9689V44.9831V44.9973V45.0116V45.0258V45.04V45.0542V45.0685V45.0827V45.0969V45.1111V45.1254V45.1396V45.1538V45.168V45.1823V45.1965V45.2107V45.225V45.2392V45.2534V45.2676V45.2819V45.2961V45.3103V45.3245V45.3388V45.353V45.3672V45.3814V45.3957V45.4099V45.4241V45.4383V45.4526V45.4668V45.481V45.4952V45.5095V45.5237V45.5379V45.5522V45.5664V45.5806V45.5948V45.6091V45.6233V45.6375V45.6517V45.666V45.6802V45.6944V45.7086V45.7229V45.7371V45.7513V45.7655V45.7798V45.794V45.8082V45.8225V45.8367V45.8509V45.8651V45.8794V45.8936V45.9078V45.922V45.9363V45.9505V45.9647V45.9789V45.9932V46.0074V46.0216V46.0358V46.0501V46.0643V46.0785V46.0927V46.107V46.1212V46.1354V46.1497V46.1639V46.1781V46.1923V46.2066V46.2208V46.235V46.2492V46.2635V46.2777V46.2919V46.3061V46.3204V46.3346V46.3488V46.363V46.3773V46.3915V46.4057V46.4199V46.4342V46.4484V46.4626V46.4769V46.4911V46.5053V46.5195V46.5338V46.548V46.5622V46.5764V46.5907V46.6049V46.6191V46.6333V46.6618V46.676V46.7045V46.7187V46.7329V46.7472V46.7614V46.7756V46.7898V46.8041V46.8183V46.8467V46.861V46.8752V46.9036V46.9179V46.9321V46.9605V46.9748V47.0032V47.0317V47.0459V47.0601V47.0886V47.1028V47.1313V47.1455V47.1597V47.1882V47.2166V47.2308V47.2451V47.2735V47.2877V47.3162V47.3304V47.3446V47.3731V47.3873V47.4158V47.43V47.4585V47.4727V47.4869V47.5011V47.5154V47.5296V47.558V47.5723V47.5865V47.6007V47.6149V47.6292V47.6434L30.7163 47.6719V47.6861V47.7003L30.7307 47.7288V47.743V47.7572V47.7714V47.7857V47.7999V47.8141V47.8283V47.8426V47.8568V47.871V47.8852V47.8995V47.9137L30.7452 47.9421V47.9564V47.9706V47.9848V47.9991V48.0133L30.7596 48.056V48.0702V48.0844V48.0986V48.1129V48.1271V48.1413L30.7741 48.1698V48.184V48.1982V48.2124V48.2267V48.2409V48.2551V48.2693V48.2836V48.2978V48.312L30.7885 48.3547V48.3689V48.3832V48.3974V48.4116V48.4258V48.4401V48.4543V48.4685V48.4827L30.8029 48.497V48.5112V48.5254L30.8174 48.5396L30.8318 48.5539L30.8463 48.5681L30.8607 48.5823L30.8751 48.5966L30.8896 48.6108L30.904 48.625L30.9185 48.6392L30.9329 48.6535L30.9474 48.6677L30.9618 48.6961L30.9762 48.7104L30.9907 48.7246L31.0051 48.7388L31.0196 48.753L31.034 48.7673L31.0484 48.7957L31.0629 48.8099L31.0773 48.8242L31.0918 48.8526L31.1062 48.8668L31.1206 48.8811L31.1351 48.8953L31.1495 48.9095L31.164 48.9238L31.1784 48.9522L31.1928 48.9664L31.2073 48.9807L31.2217 48.9949L31.2362 49.0091L31.2506 49.0233L31.2651 49.0376L31.2795 49.0518L31.2939 49.066L31.3084 49.0802L31.3228 49.0945L31.3373 49.1087L31.3517 49.1229L31.3661 49.1371L31.3806 49.1514L31.395 49.1656L31.4095 49.1798L31.4239 49.194L31.4384 49.2083L31.4528 49.2225L31.4672 49.2367L31.4817 49.251L31.4961 49.2652L31.5106 49.2794L31.525 49.2936L31.5394 49.3079L31.5539 49.3221L31.5683 49.3363L31.5828 49.3505L31.5972 49.3648L31.6116 49.379L31.6261 49.3932L31.6405 49.4074L31.655 49.4217L31.6694 49.4359L31.6838 49.4501L31.6983 49.4643L31.7127 49.4786L31.7272 49.4928L31.7416 49.507L31.7561 49.5213L31.7705 49.5355L31.7849 49.5497L31.7994 49.5639L31.8138 49.5782L31.8283 49.5924L31.8427 49.6066L31.8571 49.6208L31.8716 49.6351L31.886 49.6493L31.9005 49.6635L31.9149 49.6777L31.9293 49.692L31.9438 49.7062L31.9582 49.7204L31.9727 49.7346L31.9871 49.7489L32.0016 49.7631L32.016 49.7773L32.0304 49.7915L32.0449 49.8058L32.0593 49.82L32.0738 49.8342L32.0882 49.8485L32.1026 49.8627L32.1171 49.8769L32.1315 49.8911L32.146 49.9054L32.1604 49.9196L32.1748 49.9338H32.1893L32.2037 49.948L32.2182 49.9623L32.2326 49.9765L32.2615 49.9907H32.2759H32.2904L32.3048 50.0049H32.3193L32.3337 50.0192H32.3481L32.377 50.0334L32.3915 50.0476H32.4059H32.4203H32.4348L32.4781 50.0761H32.4926H32.507H32.5214H32.5359H32.5503H32.5648H32.5792H32.5936H32.6081H32.6225H32.637H32.6514H32.6658H32.6803L32.7092 50.0903H32.7236L32.7525 50.1045H32.7669H32.7814H32.7958H32.8103H32.8247H32.8391H32.8536H32.868H32.8825H32.8969H32.9113H32.9258H32.9402H32.9547H32.9691L32.998 50.1187H33.0124H33.0269H33.0413H33.0558L33.0846 50.133H33.0991H33.1135H33.128H33.1424H33.1568H33.1713H33.1857H33.2002H33.2146H33.2291H33.2435L33.2724 50.1472H33.2868H33.3013L33.3301 50.1614H33.3446H33.359H33.3735H33.3879H33.4023H33.4168H33.4312H33.4457H33.4601H33.4746H33.489H33.5034H33.5179H33.5323H33.5468H33.5612H33.5756H33.5901H33.6045H33.619H33.6334H33.6478H33.6623H33.6767H33.6912H33.7056H33.72H33.7345H33.7489H33.7778H33.7923H33.8067H33.8211H33.8356H33.85H33.8645H33.8789H33.8933H33.9078H33.9367H33.9511H33.9655H33.98H33.9944H34.0089H34.0233H34.0378H34.0522H34.0666H34.0811H34.0955H34.11H34.1244H34.1388H34.1533H34.1677H34.1822H34.1966H34.211H34.2255H34.2399H34.2544H34.2688H34.2977H34.3121H46.5149L37.5325 34.8399L30.7163 44.8266ZM56.4215 0.953152L39.7131 29.4624L51.6271 49.7773H83.9174L83.5853 0.953152H56.4215V0.953152Z" fill="url(#paint1_linear_102_43)"/>
<defs>
<radialGradient id="paint0_radial_102_43" cx="0" cy="0" r="1" gradientUnits="userSpaceOnUse" gradientTransform="translate(64.0989 -13.244) scale(18.5148 18.2392)">
<stop stop-color="#6BE1FB"/>
<stop offset="1" stop-color="#38BDFA"/>
</radialGradient>
<linearGradient id="paint1_linear_102_43" x1="42.5092" y1="80.9272" x2="42.5089" y2="65.5737" gradientUnits="userSpaceOnUse">
<stop stop-color="#4AC5FA"/>
<stop offset="1" stop-color="#97E8FC"/>
</linearGradient>
</defs>
</svg>
