<svg width="104" height="84" viewBox="0 0 104 84" fill="none" xmlns="http://www.w3.org/2000/svg">
<g clip-path="url(#clip0_103_126)">
<path d="M11.4727 10.9776C11.2765 5.26647 15.6666 0 21.6007 0H82.4068C88.3409 0 92.731 5.26647 92.5348 10.9776C92.3463 16.4638 92.5911 23.5704 94.3556 29.365C96.1259 35.1775 99.111 38.8514 104 39.3235V44.6765C99.111 45.1486 96.1259 48.8225 94.3556 54.635C92.5911 60.4296 92.3463 67.5362 92.5348 73.0226C92.731 78.7335 88.3409 84 82.4068 84H21.6007C15.6666 84 11.2765 78.7335 11.4729 73.0226C11.6612 67.5362 11.4164 60.4296 9.65169 54.635C7.88166 48.8225 4.88922 45.1486 0 44.6765V39.3235C4.88902 38.8514 7.88166 35.1775 9.65169 29.365C11.4164 23.5704 11.6612 16.4638 11.4727 10.9776V10.9776Z" fill="url(#paint0_linear_103_126)"/>
<g filter="url(#filter0_d_103_126)">
<path d="M54.2553 64.3294C63.8625 64.3294 69.6518 59.5616 69.6518 51.6975C69.6518 45.753 65.521 41.4495 59.3874 40.7682V40.5205C63.8938 39.7775 67.43 35.5359 67.43 30.799C67.43 24.0495 62.1727 19.6529 54.1615 19.6529H36.1361V64.3294H54.2553ZM43.146 25.3188H52.4717C57.5412 25.3188 60.4201 27.6099 60.4201 31.7586C60.4201 36.1861 57.0718 38.6629 51.0008 38.6629H43.146V25.3188V25.3188ZM43.146 58.6637V43.9573H52.4089C59.0432 43.9573 62.4855 46.4341 62.4855 51.2641C62.4855 56.0939 59.1372 58.6637 52.8157 58.6637H43.146V58.6637Z" fill="url(#paint1_linear_103_126)"/>
<path d="M54.2553 64.3294C63.8625 64.3294 69.6518 59.5616 69.6518 51.6975C69.6518 45.753 65.521 41.4495 59.3874 40.7682V40.5205C63.8938 39.7775 67.43 35.5359 67.43 30.799C67.43 24.0495 62.1727 19.6529 54.1615 19.6529H36.1361V64.3294H54.2553ZM43.146 25.3188H52.4717C57.5412 25.3188 60.4201 27.6099 60.4201 31.7586C60.4201 36.1861 57.0718 38.6629 51.0008 38.6629H43.146V25.3188V25.3188ZM43.146 58.6637V43.9573H52.4089C59.0432 43.9573 62.4855 46.4341 62.4855 51.2641C62.4855 56.0939 59.1372 58.6637 52.8157 58.6637H43.146V58.6637Z" stroke="white"/>
</g>
</g>
<defs>
<filter id="filter0_d_103_126" x="19.6361" y="7.15292" width="66.5156" height="77.6765" filterUnits="userSpaceOnUse" color-interpolation-filters="sRGB">
<feFlood flood-opacity="0" result="BackgroundImageFix"/>
<feColorMatrix in="SourceAlpha" type="matrix" values="0 0 0 0 0 0 0 0 0 0 0 0 0 0 0 0 0 0 127 0" result="hardAlpha"/>
<feOffset dy="4"/>
<feGaussianBlur stdDeviation="8"/>
<feColorMatrix type="matrix" values="0 0 0 0 0 0 0 0 0 0 0 0 0 0 0 0 0 0 0.15 0"/>
<feBlend mode="normal" in2="BackgroundImageFix" result="effect1_dropShadow_103_126"/>
<feBlend mode="normal" in="SourceGraphic" in2="effect1_dropShadow_103_126" result="shape"/>
</filter>
<linearGradient id="paint0_linear_103_126" x1="15.4535" y1="2.22312" x2="107.276" y2="74.1358" gradientUnits="userSpaceOnUse">
<stop stop-color="#9013FE"/>
<stop offset="1" stop-color="#6610F2"/>
</linearGradient>
<linearGradient id="paint1_linear_103_126" x1="39.3063" y1="22.5935" x2="60.0286" y2="57.17" gradientUnits="userSpaceOnUse">
<stop stop-color="white"/>
<stop offset="1" stop-color="#F1E5FC"/>
</linearGradient>
<clipPath id="clip0_103_126">
<rect width="104" height="84" fill="white"/>
</clipPath>
</defs>
</svg>
