<svg width="73" height="102" viewBox="0 0 73 102" fill="none" xmlns="http://www.w3.org/2000/svg">
<g clip-path="url(#clip0_103_105)">
<path d="M14.565 0.204006C19.0387 0.148756 23.5124 0.187006 27.9861 0.184881C27.9967 1.58101 28.018 2.97713 27.9669 4.37326C24.8673 4.35201 21.7698 4.37326 18.6723 4.39238C18.651 6.41963 18.6105 8.44688 18.6297 10.4741C21.74 10.4933 24.8524 10.523 27.9627 10.5103C27.9989 11.6578 27.9861 12.8095 27.952 13.9591C23.4911 13.9294 19.0302 13.9421 14.5693 13.9464C14.58 9.36488 14.5885 4.78551 14.565 0.204006Z" fill="black"/>
<path d="M29.5817 0.189129C34.1108 0.180629 38.6398 0.153004 43.1711 0.204004C43.154 1.52363 43.1668 2.84113 43.1668 4.16075C39.8712 4.15013 36.5734 4.165 33.2778 4.20325C33.2821 4.72176 33.2821 5.24025 33.2778 5.75876C36.5692 5.81188 39.8584 5.81825 43.1476 5.83738C43.1604 8.54251 43.154 11.2455 43.1711 13.9485C38.6398 13.94 34.1086 13.9443 29.5774 13.9655C29.554 12.8733 29.5519 11.7831 29.5838 10.6909C32.7239 10.6994 35.8662 10.7036 39.0063 10.6781C39.0254 9.97476 39.034 9.26926 39.0318 8.56588C35.8768 8.56588 32.7197 8.5765 29.5647 8.55525C29.5647 5.76725 29.5647 2.97713 29.5817 0.189129Z" fill="black"/>
<path d="M44.6878 0.213425C49.2084 0.213425 53.7311 0.213425 58.2516 0.213425C58.2708 1.53942 58.29 2.86542 58.2474 4.1893C54.9368 4.18717 51.6263 4.2063 48.3158 4.21267C48.3243 4.75455 48.3371 5.29642 48.3648 5.8383C51.6561 5.82342 54.9475 5.8638 58.2367 5.8978C58.2665 8.59017 58.2878 11.2825 58.2495 13.9749C53.7183 13.9622 49.1871 13.9622 44.6559 13.9834C44.6282 12.8954 44.6197 11.8032 44.6665 10.7152C47.8002 10.7385 50.9361 10.7343 54.0719 10.7045C54.0804 9.99905 54.0954 9.29355 54.089 8.59017C50.9425 8.61992 47.7939 8.60292 44.6452 8.5923C44.6452 5.80005 44.6665 3.00567 44.6878 0.213425Z" fill="black"/>
<path d="M0 19.6477C24.2687 19.6456 48.5352 19.6435 72.8039 19.6477C71.4682 34.7034 70.1538 49.759 68.7626 64.8104C67.9361 74.4302 67.084 84.0501 66.185 93.6636C61.0061 95.0321 55.8784 96.5919 50.7017 97.9667C45.9469 99.3586 41.1536 100.619 36.3966 102H36.256C31.7291 100.657 27.1574 99.4755 22.6304 98.1325C17.2876 96.696 11.9916 95.0937 6.64662 93.6636C5.95 86.4577 5.32155 79.2476 4.70163 72.0375C3.53208 58.7159 2.26028 45.4028 1.13546 32.079C0.745614 28.0691 0.466541 24.0465 0 20.0451V19.6477ZM36.5159 25.5871C36.4648 28.4792 36.5543 31.3735 36.4648 34.2635C28.1395 34.2337 19.812 34.2571 11.4867 34.2656C11.6294 37.0727 12.0065 39.8607 12.3942 42.6445C20.1401 42.9314 27.8966 42.6339 35.6425 42.8655C28.8659 45.8979 22.0063 48.7539 15.1999 51.7225C14.6162 51.9817 13.992 52.1772 13.47 52.5555C13.5276 55.6389 14.0261 58.7052 14.2455 61.7822C18.3741 61.7674 22.5005 61.7015 26.6291 61.6951C29.9375 61.6781 33.248 61.744 36.5564 61.6717C36.3987 66.742 36.6054 71.8186 36.4499 76.8889C34.2237 76.5595 32.0252 76.0644 29.8075 75.6713C28.0585 75.2909 26.2669 75.0932 24.5435 74.5939C24.2985 72.1607 24.1281 69.7191 23.9108 67.2839C23.4123 67.1309 22.884 67.1457 22.3684 67.1372C19.8674 67.1521 17.3643 67.1287 14.8612 67.167C15.1061 71.8484 15.5279 76.5234 16.2459 81.1601C18.7128 81.8019 21.184 82.4309 23.6466 83.1002C27.4194 84.1245 31.2391 84.9766 35.0183 85.9839C35.4678 86.0795 35.9215 86.2452 36.3881 86.207C36.6395 89.2861 36.4456 92.3844 36.4925 95.472C37.3638 95.3317 38.2202 95.1171 39.0617 94.8579C46.2153 92.9199 53.3604 90.9457 60.5098 88.9886C60.8655 86.1836 61.0317 83.3595 61.3129 80.5481C62.0564 72.0014 62.8063 63.4546 63.586 54.91C64.4999 45.135 65.2902 35.3494 66.2105 25.5744C56.3109 25.5829 46.4134 25.5552 36.5159 25.5871Z" fill="#0170BA"/>
<path d="M36.5159 25.5871C46.4134 25.5553 56.3109 25.5829 66.2105 25.5744C65.2902 35.3494 64.4999 45.135 63.586 54.91C62.8063 63.4546 62.0564 72.0014 61.3129 80.5481C61.0317 83.3595 60.8655 86.1836 60.5098 88.9886C53.3604 90.9458 46.2153 92.9199 39.0616 94.8579C38.2202 95.1172 37.3638 95.3318 36.4925 95.472C36.4456 92.3844 36.6395 89.2861 36.3881 86.207C36.452 86.1943 36.5819 86.1688 36.6459 86.156C43.2989 84.49 49.9071 82.6561 56.5452 80.9306C57.3846 71.5381 58.3155 62.1499 58.9056 52.7383C53.2603 52.768 47.6128 52.751 41.9674 52.7744C41.1451 52.7786 40.3228 52.7744 39.5048 52.7149C42.5426 51.1551 45.7381 49.9184 48.8569 48.5265C51.85 47.1729 54.8793 45.9043 57.8831 44.5761C58.4625 44.3105 59.0803 44.0895 59.5895 43.6943C59.7897 42.9611 59.7791 42.194 59.8579 41.4439C60.0304 39.0639 60.3372 36.6966 60.4522 34.3145C52.4571 34.2508 44.462 34.306 36.4648 34.2635C36.5542 31.3735 36.4648 28.4793 36.5159 25.5871Z" fill="#29A9DF"/>
<path d="M36.5574 61.6718C40.4176 61.6059 44.2798 61.71 48.1421 61.6845C47.927 65.6221 47.5989 69.5534 47.3944 73.491C45.0276 74.2624 42.6246 74.9148 40.2386 75.6288C38.9668 76.0155 37.6609 76.3215 36.4509 76.8889C36.6064 71.8186 36.3998 66.742 36.5574 61.6718Z" fill="#29A9DF"/>
<path d="M11.4867 34.2656C19.812 34.2571 28.1395 34.2338 36.4648 34.2635C36.5734 43.401 36.4371 52.5385 36.5564 61.6717C33.248 61.744 29.9375 61.6781 26.6291 61.6951C22.5005 61.7015 18.3741 61.7674 14.2455 61.7822C14.0261 58.7052 13.5276 55.6389 13.4701 52.5555C13.992 52.1773 14.6162 51.9817 15.1999 51.7225C22.0063 48.7539 28.8659 45.8979 35.6425 42.8655C27.8966 42.6339 20.1401 42.9314 12.3942 42.6445C12.0065 39.8608 11.6294 37.0728 11.4867 34.2656Z" fill="#CFCFCF"/>
<path d="M14.8612 67.167C17.3643 67.1287 19.8674 67.1521 22.3684 67.1373C22.884 67.1458 23.4123 67.1309 23.9108 67.2839C24.1281 69.7191 24.2985 72.1607 24.5435 74.5939C26.2669 75.0932 28.0585 75.2909 29.8075 75.6712C32.0252 76.0644 34.2237 76.5595 36.4499 76.8889C36.6629 79.9744 36.2901 83.0811 36.6459 86.156C36.5819 86.1687 36.452 86.1942 36.3881 86.207C35.9215 86.2452 35.4678 86.0795 35.0183 85.9839C31.2391 84.9766 27.4194 84.1245 23.6466 83.1002C21.184 82.4309 18.7128 81.8019 16.2459 81.1601C15.5279 76.5234 15.1061 71.8484 14.8612 67.167Z" fill="#CFCFCF"/>
<path d="M36.4648 34.2635C44.462 34.306 52.4571 34.2508 60.4523 34.3145C60.3372 36.6966 60.0305 39.0639 59.8579 41.4439C59.7791 42.194 59.7897 42.9611 59.5895 43.6943C59.0803 44.0895 58.4625 44.3105 57.8831 44.5761C54.8793 45.9043 51.85 47.1729 48.8569 48.5265C45.7381 49.9184 42.5426 51.1551 39.5048 52.7149C40.3228 52.7744 41.1451 52.7786 41.9674 52.7744C47.6128 52.751 53.2603 52.768 58.9056 52.7382C58.3155 62.1499 57.3846 71.5381 56.5452 80.9306C49.9071 82.6561 43.2989 84.49 36.6459 86.156C36.2901 83.0811 36.6629 79.9744 36.4499 76.8889C37.6599 76.3215 38.9658 76.0155 40.2376 75.6287C42.6236 74.9147 45.0266 74.2624 47.3934 73.491C47.5979 69.5534 47.9259 65.6221 48.1411 61.6845C44.2788 61.71 40.4165 61.6059 36.5564 61.6718C36.4371 52.5385 36.5734 43.401 36.4648 34.2635Z" fill="white"/>
</g>
<defs>
<clipPath id="clip0_103_105">
<rect width="72.8571" height="102" fill="white"/>
</clipPath>
</defs>
</svg>
