<svg width="57" height="85" viewBox="0 0 57 85" fill="none" xmlns="http://www.w3.org/2000/svg">
<path d="M28.9803 42.1128C28.9803 34.3677 35.2287 28.0801 42.9254 28.0801C50.6222 28.0801 56.8706 34.3677 56.8706 42.1128C56.8706 49.8578 50.6222 56.1455 42.9254 56.1455C35.2287 56.1455 28.9803 49.8578 28.9803 42.1128Z" fill="#1ABCFE"/>
<path d="M1.13126 70.1365C1.13126 62.3914 7.37969 56.1038 15.0764 56.1038H29.0216V70.1365C29.0216 77.8815 22.7732 84.1692 15.0764 84.1692C7.37969 84.1692 1.13126 77.8815 1.13126 70.1365Z" fill="#0ACF83"/>
<path d="M28.9803 0.0564283V28.0801H42.9254C50.6222 28.0801 56.8706 21.7925 56.8706 14.0475C56.8706 6.30243 50.6222 0.0147858 42.9254 0.0147858H28.9803V0.0564283Z" fill="#FF7262"/>
<path d="M1.13126 14.0891C1.13126 21.8341 7.37969 28.1218 15.0764 28.1218H29.0216V0.0980755H15.0764C7.37969 0.0564355 1.13126 6.34406 1.13126 14.0891Z" fill="#F24E1E"/>
<path d="M1.13126 42.1128C1.13126 49.8578 7.37969 56.1455 15.0764 56.1455H29.0216V28.1218H15.0764C7.37969 28.0801 1.13126 34.3678 1.13126 42.1128Z" fill="#A259FF"/>
</svg>
