<svg width="84" height="84" viewBox="0 0 84 84" fill="none" xmlns="http://www.w3.org/2000/svg">
<path d="M82.3972 38.2609L45.7382 1.60368C43.6274 -0.508011 40.2035 -0.508011 38.0909 1.60368L30.4793 9.21711L40.135 18.8728C42.3792 18.1144 44.9523 18.6233 46.7406 20.4125C48.5398 22.2126 49.0442 24.8076 48.2665 27.0601L57.5741 36.3667C59.8265 35.59 62.4234 36.0926 64.2217 37.8936C66.7345 40.4064 66.7345 44.4781 64.2217 46.9928C61.707 49.5065 57.6353 49.5065 55.1197 46.9928C53.2301 45.1013 52.7622 42.3235 53.7208 39.9952L45.0401 31.3154V54.1566C45.6523 54.46 46.2307 54.8639 46.7406 55.3738C49.2534 57.8866 49.2534 61.9583 46.7406 64.4739C44.2277 66.9858 40.1533 66.9858 37.6423 64.4739C35.1295 61.9574 35.1295 57.8857 37.6423 55.3738C38.2636 54.7533 38.9828 54.2836 39.7503 53.9693V30.9152C38.9828 30.6009 38.2655 30.1358 37.6423 29.5108C35.7389 27.6083 35.2811 24.814 36.257 22.4767L26.7384 12.9562L1.60094 38.0909C-0.51075 40.2045 -0.51075 43.6283 1.60094 45.74L38.2618 82.3981C40.3726 84.5098 43.7955 84.5098 45.909 82.3981L82.3972 45.91C84.5089 43.7983 84.5089 40.3726 82.3972 38.2609Z" fill="#F05133"/>
</svg>
