<svg width="73" height="102" viewBox="0 0 73 102" fill="none" xmlns="http://www.w3.org/2000/svg">
<g clip-path="url(#clip0_103_99)">
<path d="M7.17566 0H11.7452V4.54219H15.9571V0H20.5266V13.7461H15.9571V9.16406H11.7849V13.7461H7.17566V0ZM26.5663 4.58203H22.5332V0H35.1888V4.58203H31.1358V13.7461H26.5663V4.58203ZM37.1954 0H41.9834L44.9238 4.84102L47.8642 0H52.6522V13.7461H48.0827V6.93281L44.8841 11.8734L41.6854 6.93281V13.7461H37.1954V0ZM54.9171 0H59.4866V9.20391H65.9634V13.7461H54.9171" fill="black"/>
<path d="M7.01671 93.832L0.460449 20.0414H72.5395L65.9833 93.7922L36.4404 102" fill="#E44D26"/>
<path d="M36.5 95.7246V26.0977H65.9634L60.3409 89.0508" fill="#F16529"/>
<path d="M13.8511 35.1223H36.5V44.1668H23.7451L24.5795 53.4305H36.5V62.4551H16.3147L13.8511 35.1223ZM16.712 66.9973H25.7716L26.4073 74.2289L36.5 76.9383V86.3813L17.9835 81.2016" fill="#EBEBEB"/>
<path d="M59.0694 35.1223H36.4603V44.1668H58.235L59.0694 35.1223ZM57.4204 53.4305H36.4603V62.475H47.586L46.5331 74.2289L36.4603 76.9383V86.3414L54.937 81.2016" fill="white"/>
</g>
<defs>
<clipPath id="clip0_103_99">
<rect width="73" height="102" fill="white"/>
</clipPath>
</defs>
</svg>
