<svg width="86" height="83" viewBox="0 0 86 83" fill="none" xmlns="http://www.w3.org/2000/svg">
<path d="M15.2292 0H70.7708C79.1917 0 86 6.73932 86 15.0748V67.9252C86 76.2607 79.1917 83 70.7708 83H15.2292C6.80833 83 0 76.2607 0 67.9252V15.0748C0 6.73932 6.80833 0 15.2292 0Z" fill="#330000"/>
<path d="M41.5667 49.6581H28.2367L25.5133 57.9936C25.4417 58.3128 25.155 58.5256 24.8325 58.4902H18.0958C17.7017 58.4902 17.5942 58.2774 17.7017 57.8517L29.24 24.9709C29.3475 24.6162 29.455 24.2261 29.5983 23.8004C29.7417 23.0556 29.8133 22.2752 29.8133 21.4949C29.7775 21.3175 29.9208 21.1402 30.1 21.1047H30.2075H39.3808C39.6675 21.1047 39.8108 21.2111 39.8467 21.3885L52.9258 57.9227C53.0333 58.3128 52.9258 58.4902 52.5675 58.4902H45.0783C44.8275 58.5256 44.5767 58.3483 44.505 58.1L41.5667 49.6581V49.6581ZM30.315 42.4577H39.4167C39.2017 41.7128 38.915 40.8261 38.5925 39.9039C38.27 38.9462 37.9475 37.9175 37.625 36.8534C37.2667 35.7539 36.9442 34.6897 36.5858 33.5902C36.2275 32.4906 35.905 31.462 35.6183 30.4333C35.3317 29.4402 35.0808 28.518 34.83 27.6667H34.7583C34.4358 29.1919 34.0417 30.7171 33.54 32.2423C33.0025 33.9449 32.465 35.7184 31.8917 37.4919C31.39 39.3009 30.8525 40.968 30.315 42.4577V42.4577Z" fill="#FF9A00"/>
<path d="M60.9167 27.312C59.7342 27.3475 58.5875 26.8863 57.7275 26.0705C56.9033 25.1838 56.4733 24.0133 56.5092 22.8073C56.4733 21.6013 56.9392 20.4663 57.7992 19.6505C58.6592 18.8346 59.8058 18.409 60.9883 18.409C62.3858 18.409 63.4608 18.8346 64.2492 19.6505C65.0375 20.5017 65.4675 21.6368 65.4317 22.8073C65.4675 24.0133 65.0375 25.1838 64.1775 26.0705C63.3533 26.9218 62.135 27.3829 60.9167 27.312ZM56.9033 58.1V30.7881C56.9033 30.4334 57.0467 30.2915 57.3692 30.2915H64.4642C64.7867 30.2915 64.93 30.4688 64.93 30.7881V58.1C64.93 58.4902 64.7867 58.6676 64.4642 58.6676H57.4408C57.0825 58.6676 56.9033 58.4547 56.9033 58.1V58.1Z" fill="#FF9A00"/>
</svg>
