<svg width="73" height="102" viewBox="0 0 73 102" fill="none" xmlns="http://www.w3.org/2000/svg">
<g clip-path="url(#clip0_103_120)">
<path d="M0.244568 19.9318L0.256029 20.8434C0.262344 21.3447 1.7233 37.9437 3.50265 57.73L6.73781 93.705L21.2783 97.7524C29.2756 99.9785 35.9838 101.811 36.1855 101.825C36.3873 101.839 43.1841 100.025 51.2898 97.7937C64.2854 94.2163 66.0399 93.6775 66.1329 93.2347C66.2625 92.6177 72.6266 21.2424 72.6201 20.4788L72.6154 19.9318H36.4298H0.244568Z" fill="white"/>
<path d="M21.3934 97.9946L6.72365 93.9179L6.53195 92.8392C6.36154 91.8803 0 21.2415 0 20.3082C0 19.9704 3.71433 19.9321 36.43 19.9321C70.9633 19.9321 72.8598 19.9542 72.8571 20.3574C72.8456 22.0991 66.2609 93.6732 66.0991 93.8156C65.8946 93.9957 37.501 101.86 36.5522 101.999C36.2833 102.039 29.4618 100.237 21.3934 97.9946ZM45.6801 83.5901C50.6108 82.2381 54.7161 81.0622 54.8031 80.977C54.89 80.8918 55.467 75.0795 56.0852 68.0607C56.7035 61.042 57.2717 54.8345 57.348 54.2663L57.4866 53.2332H46.8361H36.1855V57.7301V62.227H41.9358H47.6861L47.5717 62.7739C47.5088 63.0747 47.2643 65.6596 47.0283 68.5182C46.7782 71.5472 46.4818 73.8325 46.3177 73.9956C46.1629 74.1495 43.8198 74.8627 41.1109 75.5806L36.1855 76.8858V81.467C36.1855 84.5939 36.2696 86.0482 36.4503 86.0482C36.596 86.0482 40.7494 84.942 45.6801 83.5901V83.5901ZM57.3465 47.5817C57.1848 46.3907 55.7452 30.4153 55.7452 29.813C55.7452 29.4471 54.8988 29.412 46.0876 29.412H36.43V34.1143V38.8166L40.7698 38.9829C43.1567 39.0744 45.6687 39.2136 46.352 39.2923L47.5943 39.4353L47.8959 43.1135C48.0618 45.1365 48.2595 47.2019 48.3352 47.7033L48.4728 48.6148H52.9797H57.4866L57.3465 47.5817Z" fill="#EAEBEC"/>
<path d="M21.2783 97.7524L6.73782 93.705L3.50264 57.7301C1.7233 37.9439 0.262301 21.3449 0.255986 20.8436L0.244507 19.9321H36.43H72.6155L72.6201 20.479C72.6267 21.2426 66.2625 92.618 66.1329 93.2349C66.0398 93.6778 64.2855 94.2166 51.2898 97.794C43.1841 100.025 36.3872 101.839 36.1855 101.825C35.9838 101.811 29.2755 99.9785 21.2783 97.7524H21.2783ZM45.6911 83.762C50.7175 82.3726 54.9013 81.1212 54.9885 80.9809C55.0757 80.8407 55.6762 74.7315 56.3229 67.405C56.9696 60.0784 57.5517 53.8926 57.6164 53.6586C57.7276 53.2567 56.8724 53.2332 42.119 53.2332H26.5038L27.1686 46.2448C27.5343 42.4012 27.8423 39.2465 27.853 39.2343C27.8638 39.2222 30.1556 39.1495 32.9459 39.0728C37.5212 38.9471 46.9564 39.31 47.2721 39.6238C47.39 39.741 48.1658 47.3081 48.1658 48.341C48.1658 48.8503 48.2349 48.8579 52.9035 48.8579H57.6411L57.5295 47.8248C57.4681 47.2566 57.0667 42.854 56.6376 38.0411L55.8575 29.2904L37.5863 29.2281C23.0507 29.1785 19.3148 29.2282 19.3132 29.4712C19.3119 29.6391 19.2056 30.7063 19.0765 31.8427C18.7641 34.5925 16.3813 61.1615 16.3813 61.8953V62.47H31.9283H47.4753L47.3367 63.3816C47.2605 63.8829 47.0188 66.4261 46.7997 69.033C46.5805 71.64 46.3306 73.8403 46.2444 73.9226C46.0166 74.14 36.8705 76.5692 36.3002 76.5637C36.0354 76.5612 33.6733 75.9753 31.0511 75.2617L26.2834 73.9642L26.1085 71.924C26.0124 70.8019 25.8661 69.2001 25.7835 68.3646L25.6332 66.8454H21.0072H16.3813L16.3915 67.7569C16.4107 69.4616 17.5225 80.9439 17.684 81.1044C17.8707 81.2901 35.6384 86.2555 36.1855 86.2749C36.3872 86.2821 40.6647 85.1513 45.6911 83.762H45.6911Z" fill="#F0BE25"/>
<path d="M21.2783 97.7524L6.73782 93.705L3.50264 57.7301C1.7233 37.9439 0.262301 21.3449 0.255986 20.8436L0.244507 19.9321H36.43H72.6155L72.6201 20.479C72.6267 21.2426 66.2625 92.618 66.1329 93.2349C66.0398 93.6778 64.2855 94.2166 51.2898 97.794C43.1841 100.025 36.3872 101.839 36.1855 101.825C35.9838 101.811 29.2755 99.9785 21.2783 97.7524H21.2783ZM48.3944 92.3378C54.7906 90.5832 60.144 89.0244 60.2909 88.874C60.5194 88.6399 66.0437 28.4481 66.0214 26.4343L66.0141 25.7658H51.222H36.43V27.4674V29.1689H27.8726C21.1908 29.1689 19.3148 29.2355 19.3132 29.4727C19.3119 29.6398 19.2056 30.7063 19.0765 31.8427C18.7641 34.5925 16.3813 61.1615 16.3813 61.8953V62.47H26.4056H36.43V69.5192C36.43 74.9989 36.3619 76.5673 36.1244 76.5637C35.9563 76.5612 33.6733 75.9753 31.0511 75.2617L26.2834 73.9642L26.1085 71.924C26.0124 70.8019 25.8661 69.2001 25.7835 68.3646L25.6332 66.8454H21.0072H16.3813L16.3915 67.7569C16.4208 70.3641 17.5553 81.0067 17.8214 81.1702C17.9831 81.2696 22.2362 82.4845 27.2727 83.8701L36.43 86.3894V90.9587C36.43 93.4719 36.5053 95.5281 36.5974 95.5281C36.6895 95.5281 41.9981 94.0925 48.3944 92.3378ZM27.1429 46.3102C27.4944 42.5025 27.8299 39.344 27.8884 39.2913C27.9469 39.2387 29.8928 39.1434 32.2124 39.0796L36.43 38.9636V46.0984V53.2332H31.4669H26.5038L27.1429 46.3102Z" fill="#E4A126"/>
<path d="M23.2272 11.3029V8.99374H26.5279H29.8286V4.49687V0H32.1513H34.474V6.80607V13.6121H28.8506H23.2272V11.3029ZM36.6745 11.7891V9.96604H39.7307C41.4116 9.96604 42.7869 9.90426 42.7869 9.82876C42.7869 9.75325 41.4116 8.20962 39.7307 6.39846L36.6745 3.10543V1.55272V0H43.0314H49.3883V1.81557V3.63115L46.404 3.6994L43.4197 3.76765L46.5262 7.09368L49.6328 10.4197V12.0159V13.6121H43.1536H36.6745V11.7891Z" fill="#0E0E0F"/>
</g>
<defs>
<clipPath id="clip0_103_120">
<rect width="72.8571" height="102" fill="white"/>
</clipPath>
</defs>
</svg>
